<?xml version="1.0" encoding="iso-8859-1"?>
<!-- Uploaded to: SVG Repo, www.svgrepo.com, Generator: SVG Repo Mixer Tools -->
<svg height="800px" width="800px" version="1.1" id="Layer_1" xmlns="http://www.w3.org/2000/svg" xmlns:xlink="http://www.w3.org/1999/xlink" 
	 viewBox="0 0 503.467 503.467" xml:space="preserve">
<g transform="translate(1 1)">
	<polygon style="fill:#F2EDDA;" points="242.2,71.533 54.467,71.533 54.467,242.2 105.667,242.2 395.8,242.2 447,242.2 447,71.533 	
		"/>
	<path style="fill:#AAB1BA;" d="M361.667,173.933H395.8v-51.2h-34.133V173.933z M191,173.933h34.133v-51.2H191V173.933z
		 M276.333,173.933h34.133v-51.2h-34.133V173.933z M105.667,173.933H139.8v-51.2h-34.133V173.933z"/>
	<polygon style="fill:#80D6FA;" points="242.2,37.4 301.933,37.4 301.933,3.267 242.2,3.267 	"/>
	<g>
		<path style="fill:#F2EDDA;" d="M395.8,464.067H447V242.2h-51.2V464.067z M54.467,464.067h51.2V242.2h-51.2V464.067z"/>
		<polygon style="fill:#F2EDDA;" points="3.267,498.2 498.2,498.2 498.2,464.067 3.267,464.067 		"/>
	</g>
	<polygon style="fill:#AAB1BA;" points="105.667,464.067 395.8,464.067 395.8,242.2 105.667,242.2 	"/>
	<path style="fill:#80D6FA;" d="M250.733,429.933v34.133h59.733v-153.6c0,0-17.067-17.067-59.733-17.067v102.4V429.933V395.8V293.4
		c-42.667,0-59.733,17.067-59.733,17.067v153.6h59.733V429.933z"/>
</g>
<path style="fill:#51565F;" d="M499.2,503.467H4.267C1.707,503.467,0,501.76,0,499.2c0-2.56,1.707-4.267,4.267-4.267H499.2
	c2.56,0,4.267,1.707,4.267,4.267C503.467,501.76,501.76,503.467,499.2,503.467z M465.067,469.333h-85.333
	c-2.56,0-4.267-1.707-4.267-4.267c0-2.56,1.707-4.267,4.267-4.267h12.8V247.467h-281.6V460.8h12.8c2.56,0,4.267,1.707,4.267,4.267
	c0,2.56-1.707,4.267-4.267,4.267H38.4c-2.56,0-4.267-1.707-4.267-4.267c0-2.56,1.707-4.267,4.267-4.267h12.8V247.467H38.4
	c-2.56,0-4.267-1.707-4.267-4.267s1.707-4.267,4.267-4.267h426.667c2.56,0,4.267,1.707,4.267,4.267s-1.707,4.267-4.267,4.267h-12.8
	V460.8h12.8c2.56,0,4.267,1.707,4.267,4.267C469.333,467.627,467.627,469.333,465.067,469.333z M401.067,460.8h42.667V247.467
	h-42.667V460.8z M59.733,460.8H102.4V247.467H59.733V460.8z M345.6,469.333H157.867c-2.56,0-4.267-1.707-4.267-4.267
	c0-2.56,1.707-4.267,4.267-4.267H345.6c2.56,0,4.267,1.707,4.267,4.267C349.867,467.627,348.16,469.333,345.6,469.333z
	 M311.467,435.2c-2.56,0-4.267-1.707-4.267-4.267v-117.76c-4.267-3.413-20.48-13.653-51.2-14.507v93.867h4.267
	c2.56,0,4.267,1.707,4.267,4.267s-1.707,4.267-4.267,4.267H256v29.867c0,2.56-1.707,4.267-4.267,4.267
	c-2.56,0-4.267-1.707-4.267-4.267v-29.867H243.2c-2.56,0-4.267-1.707-4.267-4.267s1.707-4.267,4.267-4.267h4.267v-93.867
	c-30.72,0.853-46.933,11.093-51.2,14.507v117.76c0,2.56-1.707,4.267-4.267,4.267s-4.267-1.707-4.267-4.267V311.467
	c0-0.853,0.853-2.56,0.853-3.413c0.853-0.853,18.773-17.92,63.147-17.92c43.52,0,62.293,17.92,63.147,17.92
	c0.853,0.853,0.853,1.707,0.853,3.413v119.467C315.733,433.493,314.027,435.2,311.467,435.2z M448,213.333
	c-2.56,0-4.267-1.707-4.267-4.267V76.8h-384v132.267c0,2.56-1.707,4.267-4.267,4.267c-2.56,0-4.267-1.707-4.267-4.267V72.533
	c0-2.56,1.707-4.267,4.267-4.267h183.467v-64c0-2.56,1.707-4.267,4.267-4.267h59.733c2.56,0,4.267,1.707,4.267,4.267V38.4
	c0,2.56-1.707,4.267-4.267,4.267H268.8c-2.56,0-4.267-1.707-4.267-4.267s1.707-4.267,4.267-4.267h29.867v-25.6h-51.2v59.733H448
	c2.56,0,4.267,1.707,4.267,4.267v136.533C452.267,211.627,450.56,213.333,448,213.333z M396.8,179.2h-34.133
	c-2.56,0-4.267-1.707-4.267-4.267v-51.2c0-2.56,1.707-4.267,4.267-4.267H396.8c2.56,0,4.267,1.707,4.267,4.267v51.2
	C401.067,177.493,399.36,179.2,396.8,179.2z M366.933,170.667h25.6V128h-25.6V170.667z M311.467,179.2h-34.133
	c-2.56,0-4.267-1.707-4.267-4.267v-51.2c0-2.56,1.707-4.267,4.267-4.267h34.133c2.56,0,4.267,1.707,4.267,4.267v51.2
	C315.733,177.493,314.027,179.2,311.467,179.2z M281.6,170.667h25.6V128h-25.6V170.667z M226.133,179.2H192
	c-2.56,0-4.267-1.707-4.267-4.267v-51.2c0-2.56,1.707-4.267,4.267-4.267h34.133c2.56,0,4.267,1.707,4.267,4.267v51.2
	C230.4,177.493,228.693,179.2,226.133,179.2z M196.267,170.667h25.6V128h-25.6V170.667z M140.8,179.2h-34.133
	c-2.56,0-4.267-1.707-4.267-4.267v-51.2c0-2.56,1.707-4.267,4.267-4.267H140.8c2.56,0,4.267,1.707,4.267,4.267v51.2
	C145.067,177.493,143.36,179.2,140.8,179.2z M110.933,170.667h25.6V128h-25.6V170.667z"/>
</svg>